<svg width="141" height="36" viewBox="0 0 141 36" fill="none" xmlns="http://www.w3.org/2000/svg">
<path d="M21.0078 23.4453H29.2109C29.1016 25.8203 28.4609 27.9141 27.2891 29.7266C26.1172 31.5391 24.4922 32.9531 22.4141 33.9688C20.3516 34.9688 17.9141 35.4688 15.1016 35.4688C12.8203 35.4688 10.7812 35.0859 8.98438 34.3203C7.20312 33.5547 5.6875 32.4531 4.4375 31.0156C3.20312 29.5781 2.25781 27.8359 1.60156 25.7891C0.960938 23.7422 0.640625 21.4375 0.640625 18.875V17.0234C0.640625 14.4609 0.976562 12.1562 1.64844 10.1094C2.33594 8.04688 3.30469 6.29687 4.55469 4.85938C5.82031 3.40625 7.33594 2.29688 9.10156 1.53125C10.8672 0.765625 12.8281 0.382812 14.9844 0.382812C17.9531 0.382812 20.4609 0.914063 22.5078 1.97656C24.5547 3.03906 26.1406 4.5 27.2656 6.35938C28.3906 8.20312 29.0547 10.3047 29.2578 12.6641H21.0547C21.0234 11.3828 20.8047 10.3125 20.3984 9.45312C19.9922 8.57812 19.3516 7.92188 18.4766 7.48438C17.6016 7.04688 16.4375 6.82812 14.9844 6.82812C13.9688 6.82812 13.0859 7.01562 12.3359 7.39062C11.5859 7.76562 10.9609 8.35938 10.4609 9.17188C9.96094 9.98438 9.58594 11.0391 9.33594 12.3359C9.10156 13.6172 8.98438 15.1641 8.98438 16.9766V18.875C8.98438 20.6875 9.09375 22.2344 9.3125 23.5156C9.53125 24.7969 9.88281 25.8438 10.3672 26.6562C10.8516 27.4688 11.4766 28.0703 12.2422 28.4609C13.0234 28.8359 13.9766 29.0234 15.1016 29.0234C16.3516 29.0234 17.4062 28.8281 18.2656 28.4375C19.125 28.0312 19.7891 27.4219 20.2578 26.6094C20.7266 25.7812 20.9766 24.7266 21.0078 23.4453ZM61.9766 17.2578V18.6406C61.9766 21.25 61.6094 23.5938 60.875 25.6719C60.1562 27.7344 59.1328 29.5 57.8047 30.9688C56.4766 32.4219 54.9062 33.5391 53.0938 34.3203C51.2812 35.0859 49.2812 35.4688 47.0938 35.4688C44.8906 35.4688 42.875 35.0859 41.0469 34.3203C39.2344 33.5391 37.6562 32.4219 36.3125 30.9688C34.9844 29.5 33.9531 27.7344 33.2188 25.6719C32.5 23.5938 32.1406 21.25 32.1406 18.6406V17.2578C32.1406 14.6484 32.5 12.3047 33.2188 10.2266C33.9531 8.14844 34.9766 6.38281 36.2891 4.92969C37.6172 3.46094 39.1875 2.34375 41 1.57812C42.8281 0.796875 44.8438 0.40625 47.0469 0.40625C49.2344 0.40625 51.2344 0.796875 53.0469 1.57812C54.875 2.34375 56.4531 3.46094 57.7812 4.92969C59.1094 6.38281 60.1406 8.14844 60.875 10.2266C61.6094 12.3047 61.9766 14.6484 61.9766 17.2578ZM53.6328 18.6406V17.2109C53.6328 15.5234 53.4844 14.0391 53.1875 12.7578C52.9062 11.4609 52.4844 10.375 51.9219 9.5C51.3594 8.625 50.6641 7.96875 49.8359 7.53125C49.0234 7.07812 48.0938 6.85156 47.0469 6.85156C45.9531 6.85156 45 7.07812 44.1875 7.53125C43.375 7.96875 42.6953 8.625 42.1484 9.5C41.6016 10.375 41.1875 11.4609 40.9062 12.7578C40.6406 14.0391 40.5078 15.5234 40.5078 17.2109V18.6406C40.5078 20.3125 40.6406 21.7969 40.9062 23.0938C41.1875 24.375 41.6016 25.4609 42.1484 26.3516C42.7109 27.2422 43.3984 27.9141 44.2109 28.3672C45.0391 28.8203 46 29.0469 47.0938 29.0469C48.1406 29.0469 49.0703 28.8203 49.8828 28.3672C50.6953 27.9141 51.375 27.2422 51.9219 26.3516C52.4844 25.4609 52.9062 24.375 53.1875 23.0938C53.4844 21.7969 53.6328 20.3125 53.6328 18.6406ZM94.1562 16.7656V30.7812C93.5781 31.4219 92.6875 32.1094 91.4844 32.8438C90.2969 33.5625 88.7969 34.1797 86.9844 34.6953C85.1719 35.2109 83.0391 35.4688 80.5859 35.4688C78.3203 35.4688 76.2656 35.1094 74.4219 34.3906C72.5781 33.6562 70.9922 32.5859 69.6641 31.1797C68.3516 29.7578 67.3359 28.0234 66.6172 25.9766C65.9141 23.9141 65.5625 21.5547 65.5625 18.8984V17C65.5625 14.3438 65.9219 11.9844 66.6406 9.92188C67.3594 7.85938 68.3672 6.125 69.6641 4.71875C70.9766 3.29687 72.5156 2.21875 74.2812 1.48438C76.0625 0.75 78.0156 0.382812 80.1406 0.382812C83.2812 0.382812 85.8359 0.882812 87.8047 1.88281C89.7734 2.86719 91.2656 4.23437 92.2812 5.98438C93.2969 7.71875 93.9141 9.72656 94.1328 12.0078H86.2344C86.0781 10.8828 85.7812 9.92969 85.3438 9.14844C84.9219 8.35156 84.3125 7.75 83.5156 7.34375C82.7188 6.92188 81.6875 6.71094 80.4219 6.71094C79.4375 6.71094 78.5391 6.92188 77.7266 7.34375C76.9297 7.76562 76.25 8.40625 75.6875 9.26562C75.125 10.1094 74.6875 11.1719 74.375 12.4531C74.0781 13.7344 73.9297 15.2344 73.9297 16.9531V18.8984C73.9297 20.6016 74.0703 22.0938 74.3516 23.375C74.6484 24.6562 75.0859 25.7266 75.6641 26.5859C76.2578 27.4297 77.0078 28.0703 77.9141 28.5078C78.8359 28.9297 79.9219 29.1406 81.1719 29.1406C82.0469 29.1406 82.7969 29.0703 83.4219 28.9297C84.0469 28.7734 84.5625 28.5859 84.9688 28.3672C85.3906 28.1328 85.7109 27.9141 85.9297 27.7109V22.4141H80.2109V16.7656H94.1562ZM107.703 0.875V35H99.5V0.875H107.703ZM127.109 23.4219H118.625V17.0703H127.109C128.266 17.0703 129.203 16.875 129.922 16.4844C130.641 16.0938 131.164 15.5547 131.492 14.8672C131.836 14.1641 132.008 13.375 132.008 12.5C132.008 11.5625 131.836 10.6953 131.492 9.89844C131.164 9.10156 130.641 8.46094 129.922 7.97656C129.203 7.47656 128.266 7.22656 127.109 7.22656H121.719V35H113.492V0.875H127.109C129.844 0.875 132.195 1.375 134.164 2.375C136.148 3.375 137.672 4.75 138.734 6.5C139.797 8.23438 140.328 10.2188 140.328 12.4531C140.328 14.6562 139.797 16.5781 138.734 18.2188C137.672 19.8594 136.148 21.1406 134.164 22.0625C132.195 22.9688 129.844 23.4219 127.109 23.4219Z" fill="black"/>
</svg>
